<mxfile host="www.draw.io" modified="2023-05-18T21:56:50.564Z" agent="Mozilla/5.0 (Windows NT 10.0; Win64; x64) AppleWebKit/537.36 (KHTML, like Gecko) Chrome/113.0.0.0 Safari/537.36" etag="NdwMuMNxoHph0JUZtlTN" version="21.3.2" type="device">
  <diagram name="Page-1" id="EDdpgDFka4_l46D2-bP_">
    <mxGraphModel dx="1120" dy="452" grid="1" gridSize="10" guides="1" tooltips="1" connect="1" arrows="1" fold="1" page="1" pageScale="1" pageWidth="1169" pageHeight="827" math="0" shadow="0">
      <root>
        <mxCell id="0" />
        <mxCell id="1" parent="0" />
        <mxCell id="9ZaDoYKJ6JFhwV0VkCIw-11" value="BASE DE DATOS" style="rounded=0;whiteSpace=wrap;html=1;" vertex="1" parent="1">
          <mxGeometry x="600" y="10" width="439" height="350" as="geometry" />
        </mxCell>
        <mxCell id="9ZaDoYKJ6JFhwV0VkCIw-2" value="Clientes" style="ellipse;whiteSpace=wrap;html=1;" vertex="1" parent="1">
          <mxGeometry x="660" y="50" width="100" height="90" as="geometry" />
        </mxCell>
        <mxCell id="9ZaDoYKJ6JFhwV0VkCIw-4" value="ventas" style="ellipse;whiteSpace=wrap;html=1;" vertex="1" parent="1">
          <mxGeometry x="780" y="240" width="100" height="90" as="geometry" />
        </mxCell>
        <mxCell id="9ZaDoYKJ6JFhwV0VkCIw-6" value="Productos" style="ellipse;whiteSpace=wrap;html=1;" vertex="1" parent="1">
          <mxGeometry x="890" y="40" width="100" height="90" as="geometry" />
        </mxCell>
        <mxCell id="9ZaDoYKJ6JFhwV0VkCIw-8" value="" style="endArrow=classic;startArrow=classic;html=1;rounded=0;" edge="1" parent="1" source="9ZaDoYKJ6JFhwV0VkCIw-4">
          <mxGeometry width="50" height="50" relative="1" as="geometry">
            <mxPoint x="660" y="210" as="sourcePoint" />
            <mxPoint x="720" y="140" as="targetPoint" />
          </mxGeometry>
        </mxCell>
        <mxCell id="9ZaDoYKJ6JFhwV0VkCIw-10" value="" style="endArrow=classic;startArrow=classic;html=1;rounded=0;exitX=0.7;exitY=0;exitDx=0;exitDy=0;exitPerimeter=0;" edge="1" parent="1" source="9ZaDoYKJ6JFhwV0VkCIw-4" target="9ZaDoYKJ6JFhwV0VkCIw-6">
          <mxGeometry width="50" height="50" relative="1" as="geometry">
            <mxPoint x="660" y="210" as="sourcePoint" />
            <mxPoint x="710" y="160" as="targetPoint" />
          </mxGeometry>
        </mxCell>
        <mxCell id="9ZaDoYKJ6JFhwV0VkCIw-12" value="CLIENTES" style="rounded=0;whiteSpace=wrap;html=1;" vertex="1" parent="1">
          <mxGeometry x="110" y="230" width="120" height="60" as="geometry" />
        </mxCell>
        <mxCell id="9ZaDoYKJ6JFhwV0VkCIw-13" value="nombre" style="ellipse;whiteSpace=wrap;html=1;" vertex="1" parent="1">
          <mxGeometry x="48" y="130" width="80" height="30" as="geometry" />
        </mxCell>
        <mxCell id="9ZaDoYKJ6JFhwV0VkCIw-14" value="apellido" style="ellipse;whiteSpace=wrap;html=1;" vertex="1" parent="1">
          <mxGeometry x="140" y="130" width="80" height="30" as="geometry" />
        </mxCell>
        <mxCell id="9ZaDoYKJ6JFhwV0VkCIw-16" value="dieccion" style="ellipse;whiteSpace=wrap;html=1;" vertex="1" parent="1">
          <mxGeometry x="230" y="130" width="80" height="30" as="geometry" />
        </mxCell>
        <mxCell id="9ZaDoYKJ6JFhwV0VkCIw-17" value="" style="endArrow=none;html=1;rounded=0;entryX=0.738;entryY=1.033;entryDx=0;entryDy=0;entryPerimeter=0;exitX=0.25;exitY=0;exitDx=0;exitDy=0;" edge="1" parent="1" source="9ZaDoYKJ6JFhwV0VkCIw-12" target="9ZaDoYKJ6JFhwV0VkCIw-13">
          <mxGeometry width="50" height="50" relative="1" as="geometry">
            <mxPoint x="140" y="220" as="sourcePoint" />
            <mxPoint x="500" y="210" as="targetPoint" />
          </mxGeometry>
        </mxCell>
        <mxCell id="9ZaDoYKJ6JFhwV0VkCIw-18" value="localidad" style="ellipse;whiteSpace=wrap;html=1;" vertex="1" parent="1">
          <mxGeometry x="260" y="210" width="80" height="30" as="geometry" />
        </mxCell>
        <mxCell id="9ZaDoYKJ6JFhwV0VkCIw-19" value="telefono" style="ellipse;whiteSpace=wrap;html=1;" vertex="1" parent="1">
          <mxGeometry x="270" y="280" width="80" height="30" as="geometry" />
        </mxCell>
        <mxCell id="9ZaDoYKJ6JFhwV0VkCIw-20" value="" style="endArrow=none;html=1;rounded=0;entryX=0.7;entryY=1.1;entryDx=0;entryDy=0;entryPerimeter=0;" edge="1" parent="1" target="9ZaDoYKJ6JFhwV0VkCIw-14">
          <mxGeometry width="50" height="50" relative="1" as="geometry">
            <mxPoint x="180" y="220" as="sourcePoint" />
            <mxPoint x="500" y="210" as="targetPoint" />
          </mxGeometry>
        </mxCell>
        <mxCell id="9ZaDoYKJ6JFhwV0VkCIw-21" value="" style="endArrow=none;html=1;rounded=0;entryX=0.325;entryY=1.067;entryDx=0;entryDy=0;entryPerimeter=0;" edge="1" parent="1" target="9ZaDoYKJ6JFhwV0VkCIw-16">
          <mxGeometry width="50" height="50" relative="1" as="geometry">
            <mxPoint x="190" y="230" as="sourcePoint" />
            <mxPoint x="206" y="173" as="targetPoint" />
          </mxGeometry>
        </mxCell>
        <mxCell id="9ZaDoYKJ6JFhwV0VkCIw-22" value="" style="endArrow=none;html=1;rounded=0;exitX=1;exitY=0.25;exitDx=0;exitDy=0;entryX=-0.025;entryY=0.767;entryDx=0;entryDy=0;entryPerimeter=0;" edge="1" parent="1" source="9ZaDoYKJ6JFhwV0VkCIw-12" target="9ZaDoYKJ6JFhwV0VkCIw-18">
          <mxGeometry width="50" height="50" relative="1" as="geometry">
            <mxPoint x="450" y="260" as="sourcePoint" />
            <mxPoint x="500" y="210" as="targetPoint" />
          </mxGeometry>
        </mxCell>
        <mxCell id="9ZaDoYKJ6JFhwV0VkCIw-23" value="" style="endArrow=none;html=1;rounded=0;exitX=1;exitY=0.5;exitDx=0;exitDy=0;entryX=0;entryY=0;entryDx=0;entryDy=0;" edge="1" parent="1" source="9ZaDoYKJ6JFhwV0VkCIw-12" target="9ZaDoYKJ6JFhwV0VkCIw-19">
          <mxGeometry width="50" height="50" relative="1" as="geometry">
            <mxPoint x="450" y="260" as="sourcePoint" />
            <mxPoint x="500" y="210" as="targetPoint" />
          </mxGeometry>
        </mxCell>
        <mxCell id="9ZaDoYKJ6JFhwV0VkCIw-24" value="dni" style="ellipse;whiteSpace=wrap;html=1;" vertex="1" parent="1">
          <mxGeometry x="180" y="340" width="80" height="30" as="geometry" />
        </mxCell>
        <mxCell id="9ZaDoYKJ6JFhwV0VkCIw-25" value="" style="endArrow=none;html=1;rounded=0;entryX=0.75;entryY=1;entryDx=0;entryDy=0;exitX=0.313;exitY=-0.133;exitDx=0;exitDy=0;exitPerimeter=0;" edge="1" parent="1" source="9ZaDoYKJ6JFhwV0VkCIw-24" target="9ZaDoYKJ6JFhwV0VkCIw-12">
          <mxGeometry width="50" height="50" relative="1" as="geometry">
            <mxPoint x="450" y="260" as="sourcePoint" />
            <mxPoint x="500" y="210" as="targetPoint" />
          </mxGeometry>
        </mxCell>
      </root>
    </mxGraphModel>
  </diagram>
</mxfile>
